<?xml version="1.0" encoding="UTF-8" standalone="no"?>
<!-- Created with Inkscape (http://www.inkscape.org/) -->

<svg
   width="59.999954mm"
   height="59.999954mm"
   viewBox="0 0 59.999954 59.999954"
   version="1.1"
   id="svg5"
   inkscape:version="1.2.1 (9c6d41e410, 2022-07-14)"
   sodipodi:docname="calc.svg"
   xmlns:inkscape="http://www.inkscape.org/namespaces/inkscape"
   xmlns:sodipodi="http://sodipodi.sourceforge.net/DTD/sodipodi-0.dtd"
   xmlns="http://www.w3.org/2000/svg"
   xmlns:svg="http://www.w3.org/2000/svg">
  <sodipodi:namedview
     id="namedview7"
     pagecolor="#ffffff"
     bordercolor="#000000"
     borderopacity="0.25"
     inkscape:showpageshadow="2"
     inkscape:pageopacity="0.0"
     inkscape:pagecheckerboard="0"
     inkscape:deskcolor="#d1d1d1"
     inkscape:document-units="mm"
     showgrid="false"
     inkscape:zoom="0.71446409"
     inkscape:cx="291.1273"
     inkscape:cy="228.14303"
     inkscape:window-width="1920"
     inkscape:window-height="974"
     inkscape:window-x="-11"
     inkscape:window-y="-11"
     inkscape:window-maximized="1"
     inkscape:current-layer="layer1" />
  <defs
     id="defs2">
    <inkscape:path-effect
       effect="fillet_chamfer"
       id="path-effect4327"
       is_visible="true"
       lpeversion="1"
       nodesatellites_param="F,0,0,1,0,1.3229167,0,1 @ F,0,0,1,0,1.3229167,0,1 @ F,0,0,1,0,1.3229167,0,1 @ F,0,0,1,0,1.3229167,0,1"
       unit="px"
       method="auto"
       mode="F"
       radius="5"
       chamfer_steps="1"
       flexible="false"
       use_knot_distance="true"
       apply_no_radius="true"
       apply_with_radius="true"
       only_selected="false"
       hide_knots="false" />
    <inkscape:path-effect
       effect="fillet_chamfer"
       id="path-effect4325"
       is_visible="true"
       lpeversion="1"
       nodesatellites_param="F,0,0,1,0,1.3229167,0,1 @ F,0,0,1,0,1.3229167,0,1 @ F,0,0,1,0,1.3229167,0,1 @ F,0,0,1,0,1.3229167,0,1"
       unit="px"
       method="auto"
       mode="F"
       radius="5"
       chamfer_steps="1"
       flexible="false"
       use_knot_distance="true"
       apply_no_radius="true"
       apply_with_radius="true"
       only_selected="false"
       hide_knots="false" />
    <inkscape:path-effect
       effect="fillet_chamfer"
       id="path-effect4323"
       is_visible="true"
       lpeversion="1"
       nodesatellites_param="F,0,0,1,0,1.3229167,0,1 @ F,0,0,1,0,1.3229167,0,1 @ F,0,0,1,0,1.3229167,0,1 @ F,0,0,1,0,1.3229167,0,1"
       unit="px"
       method="auto"
       mode="F"
       radius="5"
       chamfer_steps="1"
       flexible="false"
       use_knot_distance="true"
       apply_no_radius="true"
       apply_with_radius="true"
       only_selected="false"
       hide_knots="false" />
    <inkscape:path-effect
       effect="fillet_chamfer"
       id="path-effect4321"
       is_visible="true"
       lpeversion="1"
       nodesatellites_param="F,0,0,1,0,1.3229167,0,1 @ F,0,0,1,0,1.3229167,0,1 @ F,0,0,1,0,1.3229167,0,1 @ F,0,0,1,0,1.3229167,0,1"
       unit="px"
       method="auto"
       mode="F"
       radius="5"
       chamfer_steps="1"
       flexible="false"
       use_knot_distance="true"
       apply_no_radius="true"
       apply_with_radius="true"
       only_selected="false"
       hide_knots="false" />
    <inkscape:path-effect
       effect="fillet_chamfer"
       id="path-effect4319"
       is_visible="true"
       lpeversion="1"
       nodesatellites_param="F,0,0,1,0,1.3229167,0,1 @ F,0,0,1,0,1.3229167,0,1 @ F,0,0,1,0,1.3229167,0,1 @ F,0,0,1,0,1.3229167,0,1"
       unit="px"
       method="auto"
       mode="F"
       radius="5"
       chamfer_steps="1"
       flexible="false"
       use_knot_distance="true"
       apply_no_radius="true"
       apply_with_radius="true"
       only_selected="false"
       hide_knots="false" />
    <inkscape:path-effect
       effect="fillet_chamfer"
       id="path-effect4317"
       is_visible="true"
       lpeversion="1"
       nodesatellites_param="F,0,0,1,0,1.3229167,0,1 @ F,0,0,1,0,1.3229167,0,1 @ F,0,0,1,0,1.3229167,0,1 @ F,0,0,1,0,1.3229167,0,1"
       unit="px"
       method="auto"
       mode="F"
       radius="5"
       chamfer_steps="1"
       flexible="false"
       use_knot_distance="true"
       apply_no_radius="true"
       apply_with_radius="true"
       only_selected="false"
       hide_knots="false" />
    <inkscape:path-effect
       effect="fillet_chamfer"
       id="path-effect4315"
       is_visible="true"
       lpeversion="1"
       nodesatellites_param="F,0,0,1,0,1.3229167,0,1 @ F,0,0,1,0,1.3229167,0,1 @ F,0,0,1,0,1.3229167,0,1 @ F,0,0,1,0,1.3229167,0,1"
       unit="px"
       method="auto"
       mode="F"
       radius="5"
       chamfer_steps="1"
       flexible="false"
       use_knot_distance="true"
       apply_no_radius="true"
       apply_with_radius="true"
       only_selected="false"
       hide_knots="false" />
    <inkscape:path-effect
       effect="fillet_chamfer"
       id="path-effect4313"
       is_visible="true"
       lpeversion="1"
       nodesatellites_param="F,0,0,1,0,1.3229167,0,1 @ F,0,0,1,0,1.3229167,0,1 @ F,0,0,1,0,1.3229167,0,1 @ F,0,0,1,0,1.3229167,0,1"
       unit="px"
       method="auto"
       mode="F"
       radius="5"
       chamfer_steps="1"
       flexible="false"
       use_knot_distance="true"
       apply_no_radius="true"
       apply_with_radius="true"
       only_selected="false"
       hide_knots="false" />
    <inkscape:path-effect
       effect="fillet_chamfer"
       id="path-effect4311"
       is_visible="true"
       lpeversion="1"
       nodesatellites_param="F,0,0,1,0,1.3229167,0,1 @ F,0,0,1,0,1.3229167,0,1 @ F,0,0,1,0,1.3229167,0,1 @ F,0,0,1,0,1.3229167,0,1"
       unit="px"
       method="auto"
       mode="F"
       radius="5"
       chamfer_steps="1"
       flexible="false"
       use_knot_distance="true"
       apply_no_radius="true"
       apply_with_radius="true"
       only_selected="false"
       hide_knots="false" />
    <inkscape:path-effect
       effect="fillet_chamfer"
       id="path-effect4309"
       is_visible="true"
       lpeversion="1"
       nodesatellites_param="F,0,0,1,0,1.3229167,0,1 @ F,0,0,1,0,1.3229167,0,1 @ F,0,0,1,0,1.3229167,0,1 @ F,0,0,1,0,1.3229167,0,1"
       unit="px"
       method="auto"
       mode="F"
       radius="5"
       chamfer_steps="1"
       flexible="false"
       use_knot_distance="true"
       apply_no_radius="true"
       apply_with_radius="true"
       only_selected="false"
       hide_knots="false" />
    <inkscape:path-effect
       effect="fillet_chamfer"
       id="path-effect4307"
       is_visible="true"
       lpeversion="1"
       nodesatellites_param="F,0,0,1,0,1.3229167,0,1 @ F,0,0,1,0,1.3229167,0,1 @ F,0,0,1,0,1.3229167,0,1 @ F,0,0,1,0,1.3229167,0,1"
       unit="px"
       method="auto"
       mode="F"
       radius="5"
       chamfer_steps="1"
       flexible="false"
       use_knot_distance="true"
       apply_no_radius="true"
       apply_with_radius="true"
       only_selected="false"
       hide_knots="false" />
  </defs>
  <g
     inkscape:label="Layer 1"
     inkscape:groupmode="layer"
     id="layer1">
    <path
       id="rect923"
       style="fill:#dcdcdc;fill-opacity:1;stroke-width:0.1;stroke-linecap:square;stroke-miterlimit:5"
       d="M 0,0 V 59.999955 H 59.999955 V 0 Z" />
    <path
       id="path4296"
       style="fill:#6495ed;stroke-width:0.0856348;stroke-linecap:square;stroke-miterlimit:5"
       d="M 13.5,8.8229167 V 51.177083 A 1.3229167,1.3229167 45 0 0 14.822917,52.5 H 45.177083 A 1.3229167,1.3229167 135 0 0 46.5,51.177083 V 8.8229167 A 1.3229167,1.3229167 45 0 0 45.177083,7.5 H 14.822917 A 1.3229167,1.3229167 135 0 0 13.5,8.8229167 Z"
       inkscape:path-effect="#path-effect4307"
       inkscape:original-d="m 13.5,7.5 v 45 h 33 v -45 z" />
    <path
       id="path4293"
       style="fill:#dcdcdc;fill-opacity:1;stroke-width:0.032203;stroke-linecap:square;stroke-miterlimit:5"
       d="m 19.5,13.822917 v 7.354166 A 1.3229167,1.3229167 45 0 0 20.822917,22.5 l 18.354166,0 A 1.3229167,1.3229167 135 0 0 40.5,21.177083 V 13.822917 A 1.3229167,1.3229167 45 0 0 39.177083,12.5 H 20.822917 A 1.3229167,1.3229167 135 0 0 19.5,13.822917 Z"
       inkscape:path-effect="#path-effect4309"
       inkscape:original-d="m 19.5,12.5 v 10 h 21 v -10 z" />
    <path
       id="path4290"
       style="fill:#dcdcdc;fill-opacity:1;stroke-width:0.0111111;stroke-linecap:square;stroke-miterlimit:5"
       d="m 19.5,28.822917 v 2.354166 A 1.3229167,1.3229167 45 0 0 20.822917,32.5 h 2.354166 A 1.3229167,1.3229167 135 0 0 24.5,31.177083 l 0,-2.354166 A 1.3229167,1.3229167 45 0 0 23.177083,27.5 H 20.822917 A 1.3229167,1.3229167 135 0 0 19.5,28.822917 Z"
       inkscape:path-effect="#path-effect4311"
       inkscape:original-d="m 19.5,27.5 v 5 h 5 v -5 z" />
    <path
       id="path4287"
       style="fill:#dcdcdc;fill-opacity:1;stroke-width:0.0111111;stroke-linecap:square;stroke-miterlimit:5"
       d="m 19.5,36.822917 v 2.354166 A 1.3229167,1.3229167 45 0 0 20.822917,40.5 h 2.354166 A 1.3229167,1.3229167 135 0 0 24.5,39.177083 l 0,-2.354166 A 1.3229167,1.3229167 45 0 0 23.177083,35.5 H 20.822917 A 1.3229167,1.3229167 135 0 0 19.5,36.822917 Z"
       inkscape:path-effect="#path-effect4319"
       inkscape:original-d="m 19.5,35.5 v 5 h 5 v -5 z" />
    <path
       id="path4284"
       style="fill:#dcdcdc;fill-opacity:1;stroke-width:0.0111111;stroke-linecap:square;stroke-miterlimit:5"
       d="m 19.5,44.822917 v 2.354166 A 1.3229167,1.3229167 45 0 0 20.822917,48.5 l 2.354166,0 A 1.3229167,1.3229167 135 0 0 24.5,47.177083 l 0,-2.354166 A 1.3229167,1.3229167 45 0 0 23.177083,43.5 H 20.822917 A 1.3229167,1.3229167 135 0 0 19.5,44.822917 Z"
       inkscape:path-effect="#path-effect4327"
       inkscape:original-d="m 19.5,43.5 v 5 h 5 v -5 z" />
    <path
       id="path4281"
       style="fill:#dcdcdc;fill-opacity:1;stroke-width:0.0111111;stroke-linecap:square;stroke-miterlimit:5"
       d="m 35.5,28.822917 v 2.354166 A 1.3229167,1.3229167 45 0 0 36.822917,32.5 h 2.354166 A 1.3229167,1.3229167 135 0 0 40.5,31.177083 V 28.822917 A 1.3229167,1.3229167 45 0 0 39.177083,27.5 H 36.822917 A 1.3229167,1.3229167 135 0 0 35.5,28.822917 Z"
       inkscape:path-effect="#path-effect4315"
       inkscape:original-d="m 35.5,27.5 v 5 h 5 v -5 z" />
    <path
       id="path4278"
       style="fill:#dcdcdc;fill-opacity:1;stroke-width:0.0111111;stroke-linecap:square;stroke-miterlimit:5"
       d="m 35.5,36.822917 v 2.354166 A 1.3229167,1.3229167 45 0 0 36.822917,40.5 h 2.354166 A 1.3229167,1.3229167 135 0 0 40.5,39.177083 V 36.822917 A 1.3229167,1.3229167 45 0 0 39.177083,35.5 H 36.822917 A 1.3229167,1.3229167 135 0 0 35.5,36.822917 Z"
       inkscape:path-effect="#path-effect4317"
       inkscape:original-d="m 35.5,35.5 v 5 h 5 v -5 z" />
    <path
       id="path4275"
       style="fill:#dcdcdc;fill-opacity:1;stroke-width:0.0111111;stroke-linecap:square;stroke-miterlimit:5"
       d="m 35.5,44.822917 v 2.354166 A 1.3229167,1.3229167 45 0 0 36.822917,48.5 l 2.354166,0 A 1.3229167,1.3229167 135 0 0 40.5,47.177083 V 44.822917 A 1.3229167,1.3229167 45 0 0 39.177083,43.5 H 36.822917 A 1.3229167,1.3229167 135 0 0 35.5,44.822917 Z"
       inkscape:path-effect="#path-effect4321"
       inkscape:original-d="m 35.5,43.5 v 5 h 5 v -5 z" />
    <path
       id="path4272"
       style="fill:#dcdcdc;fill-opacity:1;stroke-width:0.0111111;stroke-linecap:square;stroke-miterlimit:5"
       d="m 27.5,28.822917 v 2.354166 A 1.3229167,1.3229167 45 0 0 28.822917,32.5 h 2.354166 A 1.3229167,1.3229167 135 0 0 32.5,31.177083 V 28.822917 A 1.3229167,1.3229167 45 0 0 31.177083,27.5 H 28.822917 A 1.3229167,1.3229167 135 0 0 27.5,28.822917 Z"
       inkscape:path-effect="#path-effect4313"
       inkscape:original-d="m 27.5,27.5 v 5 h 5 v -5 z" />
    <path
       id="path4269"
       style="fill:#dcdcdc;fill-opacity:1;stroke-width:0.0111111;stroke-linecap:square;stroke-miterlimit:5"
       d="m 27.5,36.822917 v 2.354166 A 1.3229167,1.3229167 45 0 0 28.822917,40.5 h 2.354166 A 1.3229167,1.3229167 135 0 0 32.5,39.177083 V 36.822917 A 1.3229167,1.3229167 45 0 0 31.177083,35.5 H 28.822917 A 1.3229167,1.3229167 135 0 0 27.5,36.822917 Z"
       inkscape:path-effect="#path-effect4323"
       inkscape:original-d="m 27.5,35.5 v 5 h 5 v -5 z" />
    <path
       id="path4266"
       style="fill:#dcdcdc;fill-opacity:1;stroke-width:0.0111111;stroke-linecap:square;stroke-miterlimit:5"
       d="m 27.5,44.822917 v 2.354166 A 1.3229167,1.3229167 45 0 0 28.822917,48.5 l 2.354166,0 A 1.3229167,1.3229167 135 0 0 32.5,47.177083 V 44.822917 A 1.3229167,1.3229167 45 0 0 31.177083,43.5 H 28.822917 A 1.3229167,1.3229167 135 0 0 27.5,44.822917 Z"
       inkscape:path-effect="#path-effect4325"
       inkscape:original-d="m 27.5,43.5 v 5 h 5 v -5 z" />
  </g>
</svg>
