<?xml version="1.0" encoding="UTF-8"?>
<svg xmlns="http://www.w3.org/2000/svg" xmlns:xlink="http://www.w3.org/1999/xlink" width="400px" height="400px" viewBox="0 0 400 400" version="1.1">
<defs>
<linearGradient id="linear0" gradientUnits="userSpaceOnUse" x1="310" y1="402" x2="424" y2="578" gradientTransform="matrix(0.666667,0,0,0.666667,0,0)">
<stop offset="0" style="stop-color:rgb(57.254902%,57.254902%,57.254902%);stop-opacity:1;"/>
<stop offset="1" style="stop-color:rgb(85.882353%,85.882353%,85.882353%);stop-opacity:1;"/>
</linearGradient>
<linearGradient id="linear1" gradientUnits="userSpaceOnUse" x1="223" y1="460" x2="557" y2="178" gradientTransform="matrix(0.666667,0,0,0.666667,0,0)">
<stop offset="0" style="stop-color:rgb(70.980392%,70.980392%,70.980392%);stop-opacity:1;"/>
<stop offset="1" style="stop-color:rgb(85.882353%,85.882353%,85.882353%);stop-opacity:1;"/>
</linearGradient>
<linearGradient id="linear2" gradientUnits="userSpaceOnUse" x1="310" y1="349" x2="270" y2="349.5" gradientTransform="matrix(0.666667,0,0,0.666667,0,0)">
<stop offset="0" style="stop-color:rgb(0%,0%,0%);stop-opacity:0;"/>
<stop offset="1" style="stop-color:rgb(0%,0%,0%);stop-opacity:0.25098;"/>
</linearGradient>
</defs>
<g id="surface1">
<rect x="0" y="0" width="400" height="400" style="fill:rgb(68.235294%,68.235294%,68.235294%);fill-opacity:1;stroke:none;"/>
<path style=" stroke:none;fill-rule:nonzero;fill:rgb(13.333333%,13.333333%,13.333333%);fill-opacity:1;" d="M 163.363281 222.164062 L 169.4375 258.3125 C 169.574219 259.128906 170.199219 259.777344 171.011719 259.941406 L 310.894531 288.578125 C 311.183594 288.636719 311.480469 288.628906 311.765625 288.5625 L 352.1875 278.78125 C 352.503906 278.707031 352.792969 278.554688 353.035156 278.34375 L 373.753906 260.175781 C 374.128906 259.847656 374.367188 259.394531 374.421875 258.902344 L 381.605469 197.507812 C 381.644531 197.175781 381.601562 196.835938 381.476562 196.527344 L 359.582031 142.285156 C 359.421875 141.882812 359.132812 141.546875 358.761719 141.320312 L 301.664062 106.867188 C 301.445312 106.734375 301.203125 106.644531 300.953125 106.605469 L 240.574219 96.761719 C 240.199219 96.699219 239.8125 96.746094 239.464844 96.898438 L 199.980469 113.863281 C 199.773438 113.953125 199.582031 114.078125 199.414062 114.230469 L 170.027344 141.335938 C 169.789062 141.550781 169.609375 141.824219 169.5 142.128906 L 153.765625 185.804688 C 153.5 186.535156 153.683594 187.351562 154.230469 187.898438 L 162.746094 196.414062 C 163.121094 196.789062 163.332031 197.296875 163.332031 197.828125 L 163.332031 221.832031 C 163.332031 221.945312 163.34375 222.054688 163.363281 222.164062 Z M 163.363281 222.164062 "/>
<path style=" stroke:none;fill-rule:nonzero;fill:url(#linear0);" d="M 206.667969 343.332031 L 206.667969 310.667969 L 210.585938 219.246094 C 210.628906 218.175781 211.511719 217.332031 212.582031 217.332031 L 314.085938 217.332031 C 315.15625 217.332031 316.035156 218.175781 316.082031 219.246094 L 318 264 L 322.628906 306.992188 C 322.652344 307.21875 322.714844 307.4375 322.816406 307.644531 L 330.304688 323.242188 C 330.535156 323.726562 330.953125 324.097656 331.460938 324.269531 L 356.644531 332.871094 C 357.457031 333.148438 358 333.90625 358 334.765625 L 358 383.332031 C 358 384.4375 357.105469 385.332031 356 385.332031 L 208.667969 385.332031 C 207.5625 385.332031 206.667969 384.4375 206.667969 383.332031 Z M 206.667969 343.332031 "/>
<path style=" stroke:none;fill-rule:nonzero;fill:url(#linear1);" d="M 178 275.667969 L 168.808594 252.691406 C 168.714844 252.453125 168.667969 252.203125 168.667969 251.949219 L 168.667969 195.804688 C 168.667969 195.097656 169.039062 194.445312 169.644531 194.085938 L 190 182 L 209 167 L 221.667969 159.332031 L 238.113281 151.109375 C 238.671875 150.832031 239.328125 150.828125 239.890625 151.101562 L 256.40625 159.203125 C 256.578125 159.289062 256.738281 159.398438 256.882812 159.53125 L 273.757812 175.136719 C 274.128906 175.476562 274.613281 175.667969 275.117188 175.667969 L 292.332031 175.667969 C 293.4375 175.667969 294.332031 174.769531 294.332031 173.667969 L 294.332031 170.792969 C 294.332031 169.183594 296.136719 168.234375 297.460938 169.140625 L 306.503906 175.328125 C 306.828125 175.546875 307.078125 175.859375 307.226562 176.222656 L 321.851562 211.96875 C 321.949219 212.210938 322 212.464844 322 212.726562 L 322 241.929688 C 322 242.195312 322.054688 242.460938 322.15625 242.707031 L 325.71875 251.140625 C 326.492188 252.972656 329.175781 252.675781 329.527344 250.71875 L 333.246094 230.15625 C 333.300781 229.835938 333.4375 229.53125 333.640625 229.273438 L 346.398438 213.09375 C 346.777344 212.613281 347.355469 212.332031 347.96875 212.332031 L 362.03125 212.332031 C 362.824219 212.332031 363.539062 212.800781 363.859375 213.523438 L 370.683594 228.953125 C 370.886719 229.414062 370.910156 229.929688 370.75 230.402344 L 363.484375 251.890625 C 363.382812 252.183594 363.21875 252.445312 363.003906 252.664062 L 347.585938 268.082031 C 347.210938 268.457031 346.703125 268.667969 346.171875 268.667969 L 334.148438 268.667969 C 333.625 268.667969 333.125 268.871094 332.75 269.238281 L 317.578125 284.09375 C 317.414062 284.253906 317.230469 284.382812 317.023438 284.476562 L 292.488281 295.929688 C 292.386719 295.976562 292.277344 296.015625 292.167969 296.042969 L 252 307 L 217.566406 313.558594 C 217.199219 313.628906 216.8125 313.59375 216.460938 313.453125 L 197.191406 305.871094 C 196.847656 305.738281 196.550781 305.511719 196.328125 305.21875 L 185.449219 290.820312 C 185.371094 290.71875 185.304688 290.609375 185.25 290.492188 Z M 178 275.667969 "/>
<path style=" stroke:none;fill-rule:nonzero;fill:rgb(13.333333%,13.333333%,13.333333%);fill-opacity:1;" d="M 160.21875 193.722656 L 141.429688 202.636719 C 140.964844 202.859375 140.667969 203.328125 140.667969 203.84375 L 140.667969 209.234375 C 140.667969 209.707031 140.917969 210.148438 141.328125 210.386719 L 144.003906 211.949219 C 144.414062 212.1875 144.667969 212.625 144.667969 213.097656 L 144.667969 216.128906 C 144.667969 216.265625 144.6875 216.398438 144.726562 216.527344 L 147.9375 226.804688 C 147.980469 226.933594 148.039062 227.058594 148.117188 227.167969 L 153.796875 235.375 C 153.929688 235.566406 154.113281 235.71875 154.324219 235.820312 L 160.0625 238.539062 C 160.242188 238.621094 160.4375 238.667969 160.632812 238.667969 L 171.433594 238.667969 C 171.585938 238.667969 171.742188 238.640625 171.886719 238.585938 L 185.964844 233.46875 C 186.207031 233.378906 186.414062 233.226562 186.570312 233.019531 L 192.601562 225.082031 C 192.644531 225.027344 192.683594 224.96875 192.714844 224.90625 L 197.222656 216.539062 C 197.296875 216.402344 197.34375 216.253906 197.367188 216.101562 L 199.261719 203.472656 C 199.308594 203.167969 199.460938 202.886719 199.6875 202.679688 L 202.386719 200.253906 C 202.570312 200.085938 202.796875 199.976562 203.039062 199.933594 L 206.121094 199.371094 C 206.261719 199.347656 206.40625 199.34375 206.546875 199.363281 L 210.035156 199.863281 C 210.609375 199.945312 211.066406 200.390625 211.160156 200.960938 L 212.625 209.75 C 212.652344 209.914062 212.710938 210.074219 212.796875 210.21875 L 217.53125 218.105469 C 217.621094 218.257812 217.738281 218.386719 217.878906 218.492188 L 226.460938 224.847656 C 226.597656 224.949219 226.75 225.023438 226.917969 225.066406 L 234.070312 226.933594 C 234.242188 226.976562 234.425781 226.988281 234.601562 226.960938 L 247.859375 225.019531 C 247.953125 225.007812 248.042969 224.984375 248.132812 224.949219 L 255.796875 222.074219 C 255.929688 222.023438 256.058594 221.953125 256.167969 221.863281 L 262.796875 216.496094 C 262.929688 216.390625 263.042969 216.257812 263.125 216.105469 L 268.234375 206.847656 C 268.300781 206.726562 268.347656 206.597656 268.375 206.464844 L 272.542969 185.609375 C 272.621094 185.222656 272.867188 184.890625 273.214844 184.703125 L 275.851562 183.261719 C 276.160156 183.09375 276.523438 183.054688 276.863281 183.152344 L 292.242188 187.640625 C 292.300781 187.65625 292.363281 187.679688 292.421875 187.707031 L 315 198 L 334.914062 208.773438 C 335.183594 208.921875 335.496094 208.96875 335.800781 208.910156 L 346.765625 206.8125 C 348.050781 206.566406 348.246094 204.800781 347.046875 204.28125 L 315 190.332031 L 292.332031 181.332031 L 276.558594 175.417969 C 276.410156 175.363281 276.25 175.332031 276.089844 175.332031 L 242.851562 175.332031 C 242.730469 175.332031 242.605469 175.351562 242.488281 175.382812 L 228.667969 179.332031 L 219.863281 182.921875 C 219.734375 182.972656 219.613281 183.046875 219.503906 183.136719 L 209.371094 191.6875 C 209.132812 191.886719 208.828125 192 208.511719 192 L 202.871094 192 C 202.734375 192 202.601562 192.019531 202.472656 192.0625 L 197.527344 193.605469 C 197.398438 193.644531 197.265625 193.667969 197.128906 193.667969 L 192.933594 193.667969 C 192.757812 193.667969 192.582031 193.632812 192.421875 193.5625 L 184.914062 190.4375 C 184.75 190.367188 184.574219 190.332031 184.398438 190.332031 L 173.5 190.332031 C 173.390625 190.332031 173.277344 190.347656 173.171875 190.375 L 160.457031 193.632812 C 160.375 193.65625 160.292969 193.683594 160.21875 193.722656 Z M 160.21875 193.722656 "/>
<path style=" stroke:none;fill-rule:nonzero;fill:url(#linear2);" d="M 193.425781 232.050781 L 201.332031 215.667969 C 202.363281 212.992188 206.332031 213.726562 206.332031 216.59375 L 206.332031 238.632812 C 206.332031 243.058594 201.648438 245.914062 197.714844 243.882812 C 196.601562 243.308594 195.699219 242.394531 195.136719 241.273438 L 193.464844 237.929688 C 192.542969 236.082031 192.527344 233.910156 193.425781 232.050781 Z M 193.425781 232.050781 "/>
<path style=" stroke:none;fill-rule:nonzero;fill:rgb(13.333333%,13.333333%,13.333333%);fill-opacity:1;" d="M 184.175781 317.269531 L 205.929688 309.59375 C 206.316406 309.457031 206.734375 309.699219 206.808594 310.101562 L 213.289062 345.101562 C 213.316406 345.25 213.398438 345.386719 213.511719 345.488281 L 231.886719 361.238281 C 231.960938 361.300781 232.046875 361.347656 232.140625 361.375 L 265.246094 370.640625 C 265.304688 370.660156 265.363281 370.667969 265.425781 370.667969 L 294.507812 370.667969 C 294.613281 370.667969 294.714844 370.644531 294.808594 370.597656 L 313.222656 361.386719 C 313.296875 361.351562 313.363281 361.300781 313.417969 361.242188 L 327.8125 345.535156 C 327.933594 345.40625 327.996094 345.234375 327.988281 345.058594 L 326.703125 313.53125 C 326.683594 313.09375 327.082031 312.757812 327.511719 312.851562 L 378.476562 323.957031 C 378.601562 323.984375 378.714844 324.046875 378.804688 324.136719 L 399.804688 345.136719 C 399.929688 345.261719 400 345.433594 400 345.609375 L 400 399.332031 C 400 399.703125 399.703125 400 399.332031 400 L 0.667969 400 C 0.296875 400 0 399.703125 0 399.332031 L 0 371.332031 C 0 370.964844 0.296875 370.667969 0.667969 370.667969 L 18.488281 370.667969 C 18.605469 370.667969 18.71875 370.636719 18.824219 370.574219 L 34.667969 361.332031 L 76.574219 338.714844 C 76.636719 338.683594 76.703125 338.660156 76.769531 338.648438 L 111.9375 332.011719 C 111.980469 332.003906 112.019531 331.992188 112.058594 331.976562 L 135.183594 322.726562 C 135.28125 322.6875 135.386719 322.671875 135.492188 322.683594 L 149.132812 323.980469 C 149.261719 323.992188 149.394531 323.964844 149.511719 323.90625 L 167.785156 314.113281 C 167.925781 314.039062 168.085938 314.015625 168.238281 314.050781 L 183.816406 317.296875 C 183.9375 317.320312 184.0625 317.3125 184.175781 317.269531 Z M 184.175781 317.269531 "/>
</g>
</svg>
