<?xml version="1.0" encoding="UTF-8" standalone="no"?>
<!-- Created with Inkscape (http://www.inkscape.org/) -->

<svg
   width="210mm"
   height="297mm"
   viewBox="0 0 210 297"
   version="1.1"
   id="svg5"
   inkscape:version="1.2.1 (9c6d41e410, 2022-07-14)"
   sodipodi:docname="描画.svg"
   xmlns:inkscape="http://www.inkscape.org/namespaces/inkscape"
   xmlns:sodipodi="http://sodipodi.sourceforge.net/DTD/sodipodi-0.dtd"
   xmlns="http://www.w3.org/2000/svg"
   xmlns:svg="http://www.w3.org/2000/svg">
  <sodipodi:namedview
     id="namedview7"
     pagecolor="#ffffff"
     bordercolor="#000000"
     borderopacity="0.25"
     inkscape:showpageshadow="2"
     inkscape:pageopacity="0.0"
     inkscape:pagecheckerboard="0"
     inkscape:deskcolor="#d1d1d1"
     inkscape:document-units="mm"
     showgrid="false"
     inkscape:zoom="2.3963649"
     inkscape:cx="231.18349"
     inkscape:cy="4.5902858"
     inkscape:window-width="1920"
     inkscape:window-height="974"
     inkscape:window-x="-11"
     inkscape:window-y="-11"
     inkscape:window-maximized="1"
     inkscape:current-layer="layer1"
     showguides="false" />
  <defs
     id="defs2" />
  <g
     inkscape:label="Layer 1"
     inkscape:groupmode="layer"
     id="layer1">
    <path
       id="rect901"
       style="fill:#503fba;stroke:none;stroke-width:0.0894408;stroke-linecap:square;stroke-miterlimit:5"
       d="M 0,0 V 20.00033 H 4 V 0 Z" />
    <path
       id="rect901-5"
       style="fill:#503fba;stroke:none;stroke-width:0.1;stroke-linecap:square;stroke-miterlimit:5"
       d="M 31.999894,0 20,20.00033 h 5.000212 L 37.000106,0 Z"
       sodipodi:nodetypes="ccccc" />
    <path
       id="rect901-5-8"
       style="fill:#503fba;stroke:none;stroke-width:0.0894408;stroke-linecap:square;stroke-miterlimit:5"
       d="m 33,0 v 20.00033 h 4 V 0 Z" />
    <path
       id="rect901-4"
       style="fill:#503fba;stroke:none;stroke-width:0.0824597;stroke-linecap:square;stroke-miterlimit:5"
       d="M 17,7.5 H 0 v 4 h 17 z" />
    <path
       id="rect901-3"
       style="fill:#503fba;stroke:none;stroke-width:0.0894408;stroke-linecap:square;stroke-miterlimit:5"
       d="m 13,0 v 20.00033 h 4 V 0 Z" />
    <path
       id="rect901-5-84"
       style="fill:#503fba;stroke:none;stroke-width:0.1;stroke-linecap:square;stroke-miterlimit:5"
       d="m 25.999894,10 5.5,10.00033 h 5.000212 L 31.000106,10 Z"
       sodipodi:nodetypes="ccccc" />
    <path
       id="rect901-1"
       style="fill:#503fba;stroke:none;stroke-width:0.0894408;stroke-linecap:square;stroke-miterlimit:5"
       d="m 40,0 v 20.00033 h 4 V 0 Z" />
    <path
       id="rect901-5-7"
       style="fill:#503fba;stroke:none;stroke-width:0.1;stroke-linecap:square;stroke-miterlimit:5"
       d="M 71.999894,0 60,20.00033 h 5.000212 L 77.000106,0 Z"
       sodipodi:nodetypes="ccccc" />
    <path
       id="rect901-5-7-4"
       style="fill:#503fba;stroke:none;stroke-width:0.089442;stroke-linecap:square;stroke-miterlimit:5"
       d="M 91.999894,4 80,20 h 5.000212 L 97.000106,4 Z"
       sodipodi:nodetypes="ccccc" />
    <path
       id="rect901-5-8-6"
       style="fill:#503fba;stroke:none;stroke-width:0.0894408;stroke-linecap:square;stroke-miterlimit:5"
       d="m 73,0 v 20.00033 h 4 V 0 Z" />
    <path
       id="rect901-4-3"
       style="fill:#503fba;stroke:none;stroke-width:0.0824597;stroke-linecap:square;stroke-miterlimit:5"
       d="M 57,7.5 H 40 v 4 h 17 z" />
    <path
       id="rect901-4-3-9"
       style="fill:#503fba;stroke:none;stroke-width:0.0824597;stroke-linecap:square;stroke-miterlimit:5"
       d="M 97,0.0477099 H 80 l 3,4 h 14 z"
       sodipodi:nodetypes="ccccc" />
    <path
       id="rect901-5-7-4-8"
       style="fill:#503fba;stroke:none;stroke-width:0.089442;stroke-linecap:square;stroke-miterlimit:5"
       d="M 111.9999,3.9522901 100,19.95229 h 5.00021 l 11.9999,-15.9999999 z"
       sodipodi:nodetypes="ccccc" />
    <path
       id="rect901-4-3-9-0"
       style="fill:#503fba;stroke:none;stroke-width:0.0824597;stroke-linecap:square;stroke-miterlimit:5"
       d="m 117,0 h -17 l 3,4 h 14 z"
       sodipodi:nodetypes="ccccc" />
    <path
       id="rect901-3-1"
       style="fill:#503fba;stroke:none;stroke-width:0.0894408;stroke-linecap:square;stroke-miterlimit:5"
       d="m 53,0 v 20.00033 h 4 V 0 Z" />
    <path
       id="rect901-5-84-6"
       style="fill:#503fba;stroke:none;stroke-width:0.1;stroke-linecap:square;stroke-miterlimit:5"
       d="m 65.999894,10 5.5,10.00033 h 5.000212 L 71.000106,10 Z"
       sodipodi:nodetypes="ccccc" />
    <path
       id="circle651"
       style="fill:#503fba;stroke-width:0.1;stroke-linecap:square;stroke-miterlimit:5"
       d="M 129.99982 0 A 10 10 0 0 0 119.99991 9.9999064 A 10 10 0 0 0 129.99982 19.999813 A 10 10 0 0 0 140.00024 9.9999064 A 10 10 0 0 0 129.99982 0 z M 129.99982 3.9997559 A 5.999901 6.0000561 0 0 1 135.99997 9.9999064 A 5.999901 6.0000561 0 0 1 129.99982 16.000057 A 5.999901 6.0000561 0 0 1 124.00018 9.9999064 A 5.999901 6.0000561 0 0 1 129.99982 3.9997559 z " />
  </g>
</svg>
