<svg version="1.1" xmlns="http://www.w3.org/2000/svg" xmlns:xlink="http://www.w3.org/1999/xlink" width="319.50252" height="86.4003" viewBox="0,0,319.50252,86.4003"><g transform="translate(-80.87374,-136.79985)"><g data-paper-data="{&quot;isPaintingLayer&quot;:true}" fill-rule="nonzero" stroke-linecap="butt" stroke-miterlimit="10" stroke-dasharray="" stroke-dashoffset="0" style="mix-blend-mode: normal"><g stroke="none" stroke-linejoin="miter"><path d="M116.59225,153.74417v12.0118h-15.72014v5.82314h-0.87059v-6.69463h15.72014v-10.26883h-4.08736v-0.87148zM133.97075,153.74417v42.87227h-0.87149v-42.0008h-4.08466v-0.87148zM156.336,153.74417v59.45219h-35.51053v-5.47921h0.87149v4.60773h33.76845v-57.70924h-4.08736v-0.87148zM194.78334,153.74417v12.0118h-20.66462v30.86047h-0.87059v-31.73197h20.66462v-10.26883h-4.08738v-0.87148zM214.71689,153.74417v42.87227h-0.87149v-42.0008h-4.08736v-0.87148zM237.07944,153.74417v59.45219h-35.51054v-5.47921h0.87059v4.60773h33.76846v-57.70924h-4.08646v-0.87148zM270.54178,153.74417v12.0118h-15.71743v5.82314h-0.87149v-6.69463h15.71745v-10.26883h-4.08466v-0.87148zM290.81114,153.74417l2.04907,6.89268l-0.45825,1.51701l-2.24085,-7.53821h-2.56675l-0.25929,-0.87148zM314.05148,153.74417l-9.04711,28.26312l10.84773,31.18908h-14.16893l-1.91674,-5.47921h0.92101l1.61154,4.60773h12.3278l-10.5416,-30.30771l8.77613,-27.40153h-5.68181l0.27908,-0.87148zM115.37415,176.18864v11.81103h-14.50203v25.19669h-13.14798v-5.47921h0.87149v4.60773h11.4059v-25.19671h14.50203v-10.06895h-4.08466v-0.87059zM269.32638,176.18864v11.81103h-14.50203v25.19669h-13.14795v-5.47921h0.87057v4.60773h11.40589v-25.19671h14.50294v-10.06895h-4.08557v-0.87059zM196.80811,181.7795v31.41685h-35.87429v-5.47921h0.87059v4.60773h34.13311v-29.67479h-4.08646v-0.87059zM179.67177,187.58193v4.60955h0.02521v0.87059h-0.8958v-5.48014zM294.48258,199.1742l-4.90303,14.02217h-14.16893l1.90593,-5.47921h0.92189l-1.60253,4.60773h12.32421l5.06058,-14.47142z" fill="#000000" stroke-width="1"/><path d="M108.86857,146.8037v11.14122h-15.71924v11.30327h14.50383v10.93863h-14.50383v25.19941h-12.27559v-50.47983l8.1027,-8.1027zM126.24886,146.8037v47.48182h10.04735v-47.48182h12.31611v58.58253h-34.63904v-58.58253zM187.05964,146.8037v11.14122h-20.66189v36.34061h10.53352v-9.03451h-4.98318v-10.41197h17.13723v30.54719h-35.00367v-58.58253zM206.99227,146.8037v47.48182h10.04735v-47.48182h12.31611v58.58253h-34.63905v-58.58253zM262.81988,146.8037v11.14122h-15.71924v11.30327h14.50383v10.93863h-14.50383v25.19941h-12.27559v-50.47983l8.1027,-8.1027zM283.19817,146.8037l5.1452,17.29927l5.22625,-17.29927h12.5997l-8.91298,27.83278l10.69556,30.74975h-13.24792l-6.36062,-18.19057l-6.36062,18.19057h-13.2479l10.69556,-30.74975l-8.83195,-27.83278z" fill="#537ec1" stroke-width="15"/><path d="M108.86866,146.80365v11.14122h-15.71924v11.30327h14.50383v4.02074c-8.89117,0.22854 -17.8345,0.89261 -26.77942,2.04367v-20.4062l8.1027,-8.1027zM126.24895,146.80365v26.59577c-2.07159,-0.07441 -4.14903,-0.13662 -6.23638,-0.17647c-2.00922,-0.03904 -4.02254,-0.05272 -6.03921,-0.04772v-26.37158zM148.6124,146.80365v28.02274c-4.07468,-0.36551 -8.17735,-0.68668 -12.31611,-0.94082v-27.08193zM187.05972,146.80365v11.14122h-20.66189v18.79286c-4.07191,-0.50551 -8.17753,-0.97148 -12.31611,-1.39006v-28.54402zM206.99236,146.80365v36.02461c-1.26901,-0.20636 -2.50229,-0.41021 -3.77765,-0.61581c-2.81248,-0.4676 -5.65066,-0.9294 -8.49793,-1.38645v-34.02235zM229.35582,146.80365v39.64832c-4.06006,-0.64445 -8.19046,-1.31143 -12.31611,-1.98608v-37.66225zM262.81997,146.80365v11.14122h-15.71924v11.30327h14.50383v10.93863h-14.50383v8.93369c-4.0564,-0.56437 -8.1542,-1.17885 -12.27559,-1.81501v-32.3991l8.1027,-8.1027zM283.19826,146.80365l5.1452,17.29927l5.22625,-17.29927h12.5997l-8.91298,27.83278l6.34081,18.22928c-4.37657,0.12765 -8.80003,0.13441 -13.25781,0.03871l-1.99597,-5.70882l-1.95815,5.59988c-2.73825,-0.09474 -5.4869,-0.22241 -8.24584,-0.38623c-1.58563,-0.0999 -3.17733,-0.21506 -4.77249,-0.34032l6.06353,-17.43251l-8.83195,-27.83278zM189.0854,174.839v5.1056c-5.64944,-0.87749 -11.35212,-1.72337 -17.13722,-2.49382v-2.61178z" fill="#6189c6" stroke-width="15"/></g><g><g stroke="#000000" stroke-width="2.5"><path d="M352.52021,156.63413v-18.58428h2.78764v18.58428z" fill="#f2f2f2" stroke-linejoin="miter"/><path d="M352.52021,138.04985h18.58429v2.78764h-18.58429z" fill="#f2f2f2" stroke-linejoin="miter"/><path d="M380.42358,156.63413l18.58428,55.75285l-27.87643,9.29214z" fill="#f2f2f2" stroke-linejoin="round"/><path d="M380.41987,156.79768l18.67692,55.75285l-17.72912,-5.91325z" fill-opacity="0.1" fill="#000000" stroke-linejoin="round"/><path d="M343.22806,156.63413h37.16857l-9.29214,65.045h-37.16856z" fill="#f2f2f2" stroke-linejoin="miter"/><path d="M381.4646,206.68905l17.66165,5.77739l-27.87643,9.29214z" fill-opacity="0.15" fill="#000000" stroke-linejoin="round"/><path d="M371.32407,221.679h-37.16869c0,0 27.11823,-2.09904 31.17188,-5.07446c8.24418,-6.05131 15.28886,-59.9704 15.28886,-59.9704z" fill-opacity="0.1" fill="#000000" stroke-linejoin="miter"/><path d="M380.34569,156.99839l1.18597,49.71388l-10.29245,15.23788z" fill-opacity="0.2" fill="#000000" stroke-linejoin="round"/><path d="M368.31685,156.63413v-18.58428h2.78764v18.58428z" fill="#f2f2f2" stroke-linejoin="miter"/></g><g stroke="none"><path d="M380.42358,156.63414l18.58428,55.75285l-27.87642,9.29214z" fill="#f2f2f2" stroke-width="1" stroke-linejoin="round"/><path d="M380.41988,156.79768l18.67692,55.75285l-17.72912,-5.91324z" fill-opacity="0.1" fill="#000000" stroke-width="1" stroke-linejoin="round"/><path d="M343.22806,156.63414h37.16857l-9.29214,65.04499h-37.16857z" fill="#f2f2f2" stroke-width="2" stroke-linejoin="miter"/><path d="M381.4646,206.68904l17.66166,5.77739l-27.87642,9.29214z" fill-opacity="0.15" fill="#000000" stroke-width="1" stroke-linejoin="round"/><path d="M380.39663,155.24031v0h-37.16857z" fill-opacity="0.3" fill="#000000" stroke-width="1" stroke-linejoin="round"/><path d="M371.32407,221.679h-37.16869c0,0 27.11823,-2.09905 31.17189,-5.07446c8.24418,-6.05131 15.28886,-59.97039 15.28886,-59.97039z" fill-opacity="0.1" fill="#000000" stroke-width="2" stroke-linejoin="miter"/><path d="M380.34569,156.99839l1.18597,49.71389l-10.29244,15.23788z" fill-opacity="0.2" fill="#000000" stroke-width="1" stroke-linejoin="round"/><path d="M352.52021,156.63414v-18.58428h2.78764v18.58428z" fill="#f2f2f2" stroke-width="0.5597" stroke-linejoin="miter"/><path d="M368.31685,156.63414v-18.58428h2.78764v18.58428z" fill="#f2f2f2" stroke-width="0.5597" stroke-linejoin="miter"/><path d="M352.52021,138.04985h18.58428v2.78764h-18.58428z" fill="#f2f2f2" stroke-width="0.5597" stroke-linejoin="miter"/><g stroke-width="0" stroke-linejoin="miter"><path d="M366.3962,191.04583c-0.56466,1.47211 -1.61145,2.97274 -2.89531,3.64442c-0.48687,0.25472 -1.27854,0.75376 -2.03003,0.93868c-1.1282,0.27764 -2.52603,0.16276 -3.05643,0.12906c-1.62568,-0.10349 -5.08078,-0.32338 -6.30759,-0.40592c-3.91869,-0.26363 -6.84366,-3.941 -6.53311,-8.21365c0.31055,-4.27265 3.73903,-7.52259 7.65772,-7.25896c1.40313,0.0944 5.24396,0.4096 6.71266,0.53095c0.36348,0.03004 1.77524,0.11969 2.99894,0.66271c0.62924,0.27919 1.37081,0.92163 1.74421,1.24472c0.91037,0.78771 1.78071,2.49063 2.12638,4.10102c0.1011,0.47097 0.22952,1.55016 0.12421,2.56481c-0.08963,0.86348 -0.39395,1.67716 -0.54163,2.0622zM360.24603,191.48227c0.40228,-0.06838 0.93564,-0.24526 1.43527,-0.68297c0.28181,-0.24688 0.646,-0.70002 0.88024,-1.15987c0.26177,-0.5139 0.37883,-1.035 0.39294,-1.26209c0.01291,-0.20736 -0.01861,-0.80321 -0.19191,-1.36334c-0.15935,-0.51503 -0.45005,-0.9927 -0.68379,-1.26816c-0.43836,-0.51661 -0.95948,-0.75717 -1.36851,-0.86872c-0.40234,-0.10973 -0.9554,-0.113 -1.37037,-0.14243c-1.46269,-0.10379 -4.86098,-0.34486 -5.66706,-0.40204c-0.33536,-0.02384 -0.86257,-0.05215 -1.1487,-0.01685c-0.40607,0.05008 -0.99268,0.18108 -1.45437,0.52186c-0.82661,0.61012 -1.29319,1.84484 -1.33807,2.44349c-0.04513,0.60109 -0.00611,1.76886 0.76247,2.62793c0.27041,0.30224 0.60706,0.6335 0.98784,0.8302c0.28322,0.14631 0.57344,0.23465 0.77075,0.28357c0.14899,0.03697 0.40623,0.06143 0.59752,0.07322c0.66852,0.04106 4.57437,0.28314 6.11805,0.37866c0.3885,0.02418 0.89244,0.07298 1.27772,0.00756z" fill="#54ab8a"/><path d="M368.76364,192.71632c-0.24474,3.3672 -2.94666,5.92842 -6.03491,5.72066c-1.80189,-0.12122 -3.33718,-1.15832 -4.25494,-2.67008c-0.00156,-0.00206 0.3886,0.04427 0.95422,0.05048c0.59453,0.00658 1.38305,-0.03144 2.1148,-0.21777c0.55135,-0.14041 1.08462,-0.40476 1.51127,-0.63701c0.62717,-0.3414 1.04409,-0.65003 1.11435,-0.69359c0.58146,-0.36063 0.99543,-1.01812 1.05173,-1.79266c0.08921,-1.22737 -0.75352,-2.28391 -1.88227,-2.35985c-0.59359,-0.03993 -1.14807,0.19927 -1.5534,0.61356c-0.18767,0.19182 -0.72393,0.60515 -1.3307,0.70194c-0.20057,0.03198 -0.54563,0.08839 -0.95407,0.08138c-0.83531,-0.01435 -1.85175,-0.13241 -1.85156,-0.13338c0.49514,-3.07418 3.05983,-5.33213 5.96685,-5.13656c0.24068,0.01619 0.47661,0.04874 0.70694,0.09655c2.72512,0.56579 4.66735,3.27171 4.44169,6.37648z" fill="#3e7e66"/></g></g></g></g></g></svg>