<svg version="1.1" xmlns="http://www.w3.org/2000/svg" xmlns:xlink="http://www.w3.org/1999/xlink" width="353.70116" height="121.79792" viewBox="0,0,353.70116,121.79792"><g transform="translate(-63.14942,-119.10104)"><g data-paper-data="{&quot;isPaintingLayer&quot;:true}" fill-rule="nonzero" stroke="none" stroke-linecap="butt" stroke-miterlimit="10" stroke-dasharray="" stroke-dashoffset="0" style="mix-blend-mode: normal"><path d="M389.69993,146.07983l26.97877,80.93632l-40.46816,13.48939z" fill="#bb9878" stroke-width="1" stroke-linejoin="round"/><path d="M389.69455,146.31724l27.11325,80.93632l-25.73733,-8.58424z" fill-opacity="0.1" fill="#000000" stroke-width="1" stroke-linejoin="round"/><path d="M335.70325,146.07983h53.95755l-13.48939,94.42571h-53.95755z" fill="#bb9878" stroke-width="2" stroke-linejoin="miter"/><path d="M391.21118,218.74445l25.6394,8.38703l-40.46816,13.48939z" fill-opacity="0.15" fill="#000000" stroke-width="1" stroke-linejoin="round"/><path d="M335.70326,144.05641h53.95755v0z" fill-opacity="0.3" fill="#000000" stroke-width="1" stroke-linejoin="round"/><path d="M376.49019,240.50534h-53.95773c0,0 39.36749,-3.04718 45.25218,-7.36659c11.96807,-8.78467 22.19481,-87.05892 22.19481,-87.05892z" fill-opacity="0.1" fill="#000000" stroke-width="2" stroke-linejoin="miter"/><path d="M389.58686,146.6086l1.72168,72.16957l-14.94152,22.1208z" fill-opacity="0.2" fill="#000000" stroke-width="1" stroke-linejoin="round"/><path d="M349.19265,146.07983v-26.97877h4.04682v26.97877z" fill="#aa8a6d" stroke-width="0.5597" stroke-linejoin="miter"/><path d="M372.12461,146.07983v-26.97877h4.04682v26.97877z" fill="#aa8a6d" stroke-width="0.5597" stroke-linejoin="miter"/><path d="M349.19265,119.10105h26.97877v4.04682h-26.97877z" fill="#aa8a6d" stroke-width="0.5597" stroke-linejoin="miter"/><g stroke-width="0" stroke-linejoin="miter"><path d="M369.3364,196.03522c-0.81972,2.13706 -2.33933,4.31552 -4.20312,5.2906c-0.70679,0.36977 -1.85605,1.09423 -2.94699,1.36269c-1.63781,0.40305 -3.66703,0.23627 -4.43702,0.18735c-2.35999,-0.15023 -7.37575,-0.46945 -9.15672,-0.58927c-5.68875,-0.38271 -9.93493,-5.72115 -9.48411,-11.92374c0.45083,-6.2026 5.42794,-10.92054 11.11669,-10.53782c2.03692,0.13704 7.61264,0.59462 9.74476,0.77078c0.52766,0.04361 2.57711,0.17375 4.35356,0.96206c0.91347,0.4053 1.99,1.33792 2.53207,1.80696c1.32158,1.14352 2.58505,3.61564 3.08687,5.95345c0.14676,0.6837 0.3332,2.25036 0.18031,3.72333c-0.13011,1.25351 -0.57189,2.43473 -0.78629,2.99369zM360.40821,196.6688c0.58399,-0.09927 1.35826,-0.35605 2.08358,-0.99146c0.40911,-0.3584 0.93779,-1.01622 1.27785,-1.68379c0.38002,-0.74602 0.54995,-1.5025 0.57043,-1.83217c0.01874,-0.30102 -0.02702,-1.16602 -0.2786,-1.97917c-0.23133,-0.74767 -0.65334,-1.4411 -0.99266,-1.84099c-0.63637,-0.74996 -1.39288,-1.09919 -1.98667,-1.26112c-0.58407,-0.15929 -1.38695,-0.16403 -1.98937,-0.20677c-2.12339,-0.15068 -7.05668,-0.50063 -8.22685,-0.58365c-0.48684,-0.0346 -1.25219,-0.0757 -1.66757,-0.02447c-0.5895,0.0727 -1.44108,0.26288 -2.11131,0.75758c-1.19999,0.8857 -1.87732,2.67815 -1.94248,3.54721c-0.06552,0.8726 -0.00886,2.56786 1.10688,3.81497c0.39255,0.43877 0.88127,0.91965 1.43404,1.20521c0.41114,0.2124 0.83247,0.34064 1.11889,0.41166c0.21629,0.05367 0.58972,0.08918 0.86742,0.1063c0.97049,0.0596 6.6406,0.41104 8.88157,0.5497c0.56399,0.0351 1.29555,0.10594 1.85486,0.01098z" fill="#e8e8e8"/><path d="M372.77321,198.46027c-0.35528,4.88815 -4.27766,8.60627 -8.76086,8.30467c-2.6158,-0.17598 -4.84458,-1.68153 -6.17688,-3.87615c-0.00227,-0.003 0.56413,0.06427 1.38524,0.07328c0.86308,0.00955 2.00777,-0.04564 3.07005,-0.31614c0.8004,-0.20383 1.57454,-0.58759 2.19391,-0.92475c0.91046,-0.49561 1.51571,-0.94364 1.61769,-1.00689c0.84411,-0.52353 1.44507,-1.478 1.52679,-2.6024c0.12951,-1.78177 -1.09388,-3.31555 -2.7325,-3.42579c-0.86171,-0.05797 -1.66665,0.28928 -2.25506,0.8907c-0.27244,0.27847 -1.05093,0.8785 -1.93178,1.01901c-0.29116,0.04642 -0.79209,0.12832 -1.38502,0.11814c-1.21262,-0.02083 -2.68818,-0.19222 -2.68791,-0.19363c0.71879,-4.46278 4.44195,-7.74065 8.66206,-7.45674c0.3494,0.0235 0.69189,0.07075 1.02627,0.14016c3.95605,0.82135 6.77558,4.74954 6.44799,9.25672z" fill="#b2b2b2"/></g><g stroke-linejoin="miter"><path d="M98.86793,153.74417v12.0118h-15.72014v5.82314h-0.87059v-6.69463h15.72014v-10.26883h-4.08736v-0.87148zM116.24643,153.74417v42.87227h-0.87149v-42.0008h-4.08466v-0.87148zM138.61168,153.74417v59.45219h-35.51053v-5.47921h0.87149v4.60773h33.76845v-57.70924h-4.08736v-0.87148zM177.05902,153.74417v12.0118h-20.66462v30.86047h-0.87059v-31.73197h20.66462v-10.26883h-4.08738v-0.87148zM196.99257,153.74417v42.87227h-0.87149v-42.0008h-4.08736v-0.87148zM219.35512,153.74417v59.45219h-35.51054v-5.47921h0.87059v4.60773h33.76846v-57.70924h-4.08646v-0.87148zM252.81746,153.74417v12.0118h-15.71743v5.82314h-0.87149v-6.69463h15.71745v-10.26883h-4.08466v-0.87148zM273.08682,153.74417l2.04907,6.89268l-0.45825,1.51701l-2.24085,-7.53821h-2.56675l-0.25929,-0.87148zM296.32716,153.74417l-9.04711,28.26312l10.84773,31.18908h-14.16893l-1.91674,-5.47921h0.92101l1.61154,4.60773h12.3278l-10.5416,-30.30771l8.77613,-27.40153h-5.68181l0.27908,-0.87148zM97.64983,176.18864v11.81103h-14.50203v25.19669h-13.14798v-5.47921h0.87149v4.60773h11.4059v-25.19671h14.50203v-10.06895h-4.08466v-0.87059zM251.60206,176.18864v11.81103h-14.50203v25.19669h-13.14795v-5.47921h0.87057v4.60773h11.40589v-25.19671h14.50294v-10.06895h-4.08557v-0.87059zM179.08379,181.7795v31.41685h-35.87429v-5.47921h0.87059v4.60773h34.13311v-29.67479h-4.08646v-0.87059zM161.94745,187.58193v4.60955h0.02521v0.87059h-0.8958v-5.48014zM276.75826,199.1742l-4.90303,14.02217h-14.16893l1.90593,-5.47921h0.92189l-1.60253,4.60773h12.32421l5.06058,-14.47142z" fill="#000000" stroke-width="1"/><path d="M91.14425,146.8037v11.14122h-15.71924v11.30327h14.50383v10.93863h-14.50383v25.19941h-12.27559v-50.47983l8.1027,-8.1027zM108.52454,146.8037v47.48182h10.04735v-47.48182h12.31611v58.58253h-34.63904v-58.58253zM169.33532,146.8037v11.14122h-20.66189v36.34061h10.53352v-9.03451h-4.98318v-10.41197h17.13723v30.54719h-35.00367v-58.58253zM189.26795,146.8037v47.48182h10.04735v-47.48182h12.31611v58.58253h-34.63905v-58.58253zM245.09556,146.8037v11.14122h-15.71924v11.30327h14.50383v10.93863h-14.50383v25.19941h-12.27559v-50.47983l8.1027,-8.1027zM265.47385,146.8037l5.1452,17.29927l5.22625,-17.29927h12.5997l-8.91298,27.83278l10.69556,30.74975h-13.24792l-6.36062,-18.19057l-6.36062,18.19057h-13.2479l10.69556,-30.74975l-8.83195,-27.83278z" fill="#537ec1" stroke-width="15"/><path d="M91.14434,146.80365v11.14122h-15.71924v11.30327h14.50383v4.02074c-8.89117,0.22854 -17.8345,0.89261 -26.77942,2.04367v-20.4062l8.1027,-8.1027zM108.52463,146.80365v26.59577c-2.07159,-0.07441 -4.14903,-0.13662 -6.23638,-0.17647c-2.00922,-0.03904 -4.02254,-0.05272 -6.03921,-0.04772v-26.37158zM130.88808,146.80365v28.02274c-4.07468,-0.36551 -8.17735,-0.68668 -12.31611,-0.94082v-27.08193zM169.3354,146.80365v11.14122h-20.66189v18.79286c-4.07191,-0.50551 -8.17753,-0.97148 -12.31611,-1.39006v-28.54402zM189.26804,146.80365v36.02461c-1.26901,-0.20636 -2.50229,-0.41021 -3.77765,-0.61581c-2.81248,-0.4676 -5.65066,-0.9294 -8.49793,-1.38645v-34.02235zM211.6315,146.80365v39.64832c-4.06006,-0.64445 -8.19046,-1.31143 -12.31611,-1.98608v-37.66225zM245.09565,146.80365v11.14122h-15.71924v11.30327h14.50383v10.93863h-14.50383v8.93369c-4.0564,-0.56437 -8.1542,-1.17885 -12.27559,-1.81501v-32.3991l8.1027,-8.1027zM265.47394,146.80365l5.1452,17.29927l5.22625,-17.29927h12.5997l-8.91298,27.83278l6.34081,18.22928c-4.37657,0.12765 -8.80003,0.13441 -13.25781,0.03871l-1.99597,-5.70882l-1.95815,5.59988c-2.73825,-0.09474 -5.4869,-0.22241 -8.24584,-0.38623c-1.58563,-0.0999 -3.17733,-0.21506 -4.77249,-0.34032l6.06353,-17.43251l-8.83195,-27.83278zM171.36108,174.839v5.1056c-5.64944,-0.87749 -11.35212,-1.72337 -17.13722,-2.49382v-2.61178z" fill="#6189c6" stroke-width="15"/></g></g></g></svg>